<svg version="1.1" xmlns="http://www.w3.org/2000/svg" xmlns:xlink="http://www.w3.org/1999/xlink" width="222" height="167" viewBox="0,0,222,167"><g transform="translate(-129.23437,-98.5)"><g data-paper-data="{&quot;isPaintingLayer&quot;:true}" fill="#ffffff" fill-rule="nonzero" stroke="none" stroke-linecap="butt" stroke-linejoin="miter" stroke-miterlimit="10" stroke-dasharray="" stroke-dashoffset="0" style="mix-blend-mode: normal"><path d="M148.73438,195.5c0,-0.58938 0.13895,-1.03981 0.35133,-1.38405c0.02684,-0.11858 0.04497,-0.20086 0.05292,-0.24075c1.26753,-6.35849 1.79772,-12.97345 3.73316,-19.19262c0.34609,-1.1121 0.79501,-2.22354 1.30164,-3.3297c-2.71352,-1.31674 -4.30705,-3.61446 -4.43905,-6.85287c-0.06802,-1.66879 2.39882,-6.57587 2.95489,-7.91076c1.92257,-4.61526 3.13869,-9.68844 5.29801,-14.18494c1.42612,-2.9697 3.48256,-5.59319 5.23236,-8.38445c1.92382,-2.25172 4.33866,-4.14921 5.81866,-6.71453c0.82681,-1.43313 0.40487,-3.61593 1.67949,-4.67084c1.62962,-1.34871 4.03642,-1.28115 6.09586,-1.76424c5.73197,-1.34458 12.01638,-1.86066 17.60938,-3.73492c1.49019,-0.49937 2.70128,-1.73422 4.23696,-2.06844c0.39659,-0.08631 9.73139,-0.06713 10.55939,-0.06688l0.07018,-0.05033c0.41441,-0.305 0.92633,-0.4852 1.48035,-0.4852c0.60083,0 1.15216,0.21195 1.58329,0.56517c8.71806,0.15426 17.82527,0.82068 26.37955,-0.18181c3.84435,-0.45053 7.5775,-1.67056 11.31852,-2.84782c-6.60563,0 -13.21127,0 -19.8169,0h-2c0,0 -2.5,0 -2.5,-2.5c0,-2.5 2.5,-2.5 2.5,-2.5c11,0 24,0 35,0c4.68917,0 9.62007,-0.41512 14.28289,0.01606c0.0608,0.00562 0.12162,0.0115 0.18245,0.01764c4.41145,-1.10491 8.77616,-2.57306 13.28831,-3.02153c11.30796,-1.12391 23.08286,0.34692 34.35963,0.9904c5.38943,0.30753 10.89333,-0.61518 16.23541,0.39656c2.18904,0.41458 4.88034,-0.05605 6.5255,1.44636c2.11151,1.9283 0.17366,6.3524 -0.4739,8.35348c-0.63306,2.53716 -1.54447,5.01851 -1.91903,7.60649c-0.42774,2.9554 0.89622,4.36049 -0.17157,7.65125c-0.33057,1.01875 -1.63203,1.43921 -2.18307,2.35762c-0.47433,0.79055 -0.45255,1.79552 -0.81693,2.64238c-0.53692,1.24787 -1.48687,2.3163 -1.87658,3.61767c-0.66471,2.21972 0.06688,6.09731 0.06688,8.42562c0,4.99993 0.01472,10.00009 0,15c-0.01686,5.72516 -2.33567,10.9317 -3.06079,16.55314c-0.66956,5.19067 -0.48569,9.67218 -1.96338,14.79361c0.08941,17.2171 0.02416,34.43592 0.02416,51.65325c0,4.11461 0.23257,8.22701 -0.46313,12.30666c-0.3753,2.20079 0.06563,4.84603 -1.36956,6.55616c-0.62849,0.74889 -6.32888,0.65299 -7.68965,0.63708c-6.65261,-0.07779 -13.12733,-1.43851 -19.68503,-2.49258c-19.40974,-3.12204 -37.87447,-8.98826 -56.80391,-14.09058c-7.69102,-2.07307 -15.94176,-5.38375 -23.82055,-6.43886c-5.61521,-0.75198 -12.01667,0.02212 -17.66817,0.02212c-13.72411,0 -27.44823,0 -41.17234,0c1.03627,1.71842 2.2084,3.36377 3.07904,5.17022l2.48696,-1.09557c0,0 2.42536,-0.60634 3.0317,1.81902c0.60634,2.42536 -1.81902,3.0317 -1.81902,3.0317l-5.51304,0.90443c-1.6322,-2.11832 -5.47238,-6.83874 -6.75762,-9.43574c-0.06487,-0.13107 -0.12927,-0.26242 -0.19323,-0.39404c-1.04749,0 -2.09497,0 -3.14246,0c-3.33333,0 -6.6731,0.20701 -10,0c-2.26471,-0.14092 -4.93796,0.60962 -6.76777,-0.73223c-1.29661,-0.95085 -0.61204,-3.16438 -0.73223,-4.76777c-0.20933,-2.79234 -0.48446,-5.64838 0.03228,-8.40046c0.2545,-1.3554 0.66308,-2.71296 1.34109,-3.91387c0.44695,-0.79165 1.54897,-1.09255 1.94691,-1.90993c0.91982,-1.88936 1.10103,-7.16998 1.23495,-8.87463c0.97669,-3.09209 1.15476,-6.38504 1.55556,-9.60285c0.03506,-0.28144 1.24072,-5.39002 1.89129,-8.17488c-0.00138,-0.04043 -0.00208,-0.08156 -0.00208,-0.12338zM245.99831,161.61803c-0.51619,-1.03237 -0.31742,-1.82642 0.04616,-2.38216c-2.38339,0.50312 -4.7698,1.11658 -7.14799,1.81144c-2.39968,2.24541 -4.83511,4.45642 -7.22719,6.70699c-4.2099,3.96085 -8.53028,7.84426 -12.94902,11.62495c1.00186,-0.14712 1.93994,-0.31219 2.75848,-0.51729c3.93148,-0.98509 8.15235,-1.46964 11.98874,-2.74144c2.43981,-0.80882 4.59314,-2.42507 7.09188,-3.02768c6.06982,-1.46381 11.88295,-2.82655 17.52433,-5.8123c3.47833,-1.84093 7.35059,-5.38746 11.29636,-7.66232c-3.25821,-0.81268 -6.51606,-1.62677 -9.77229,-2.44716c-0.61504,0.0654 -1.22911,0.14521 -1.8427,0.2323c-2.04189,1.3921 -4.0864,2.77855 -6.1257,4.16448l-2.28697,1.16822c0,0 -2.23607,1.11803 -3.3541,-1.11803zM264.79044,146.45915c0.44761,-0.31669 7.87905,-5.93877 8.17824,-6.11508c0.2766,-0.163 8.74745,-3.88945 9.15854,-4.08555c3.79343,-1.80959 7.26377,-4.35577 11.10937,-6.05078c2.96129,-1.30524 6.1371,-2.05608 9.20721,-3.07945c0,0 2.37171,-0.79057 3.16228,1.58114c0.79057,2.37171 -1.58114,3.16228 -1.58114,3.16228c-2.92989,0.97663 -5.96731,1.67364 -8.79279,2.92055c-3.76833,1.66299 -7.17163,4.17186 -10.89063,5.94922c-2.90804,1.38979 -6.06497,2.27756 -8.84146,3.91445c-2.81069,1.65706 -5.15822,4.00042 -7.82176,5.88492c-0.90163,0.63791 -1.80633,1.27303 -2.71341,1.9058c2.04896,0.1293 4.11987,0.35029 6.40773,0.55718c2.10502,0.19036 4.66162,-0.83785 6.32352,0.46807c0.99247,0.77988 1.23665,2.07549 1.41329,3.41765c0.24402,0.0625 0.48778,0.12423 0.73128,0.1851c0,0 1.57351,0.39338 1.86886,1.81384c2.15707,-1.22272 4.63132,-1.86323 6.94788,-2.7731c1.87542,-0.7366 3.67489,-2.44141 5.66298,-2.1139c2.49444,0.41092 5.47186,1.73939 6.38167,4.09806c0.65142,1.68881 -2.04958,2.98411 -3.07437,4.47617c-2.58683,1.10646 -5.49341,1.24465 -8.18125,2.0762c-1.64584,0.50918 -2.96093,1.8857 -4.63772,2.28121c-1.56107,0.36822 -3.25194,-0.42719 -4.81144,-0.05238c-0.21633,0.05199 -0.42541,0.1189 -0.62827,0.19865c-1.02646,0.9511 -2.04061,1.91839 -3.10026,2.82666c-2.02785,1.73815 -4.48044,3.06841 -6.10735,5.18656c-1.55774,2.0281 -2.35431,4.77399 -3.88353,6.84751c-2.4586,3.33371 -7.06516,6.72938 -8.76127,10.5803c-0.61809,1.40334 -0.45875,3.03811 -0.84598,4.52184c-0.41475,1.58915 -1.17945,3.07651 -1.55441,4.67552c-0.27917,1.19051 -0.47089,2.38844 -0.61119,3.59035c0.40567,0.0092 0.81184,0.01663 1.21841,0.02244c0.03439,-1.96725 2.11723,-2.29938 2.11723,-2.29938l0.95063,-0.06821c8.25197,-3.64054 17.53754,-6.33971 25.00293,-11.50652c9.31325,-6.44572 15.53514,-16.45049 24.03433,-23.71423c0.49223,-7.74207 1.78905,-15.38664 1.83239,-23.16723c0.0522,-8.59212 0.27234,-16.92753 2.0769,-25.35699l-0.00042,-0.2688c-0.02951,-0.00521 -0.04541,-0.00874 -0.04541,-0.00874c-7.28325,-1.6185 -14.63007,-2.52138 -21.92914,-3.98533c-2.31797,-0.46491 -4.69658,-1.21056 -7.08009,-1.84758c-0.21402,0.69355 -0.68068,1.1602 -0.68068,1.1602c-4.50711,4.48829 -9.92742,7.82705 -14.73815,11.95343c0.8671,0.3924 1.47038,1.26515 1.47038,2.27881c0,0.8764 -0.45097,1.64748 -1.13351,2.09383l-1.94524,1.31199c-5.13042,6.37594 -11.04685,12.05002 -16.29978,18.35353c-0.19198,0.22996 -0.38527,0.4587 -0.57979,0.68627c0.48841,0.03191 0.97572,0.0578 1.45831,0.05437c2.4106,-0.01713 4.82615,0.18941 7.23963,0.54648c2.45198,-1.68147 4.89532,-3.37435 7.31644,-5.08733zM259.46661,126.73223l1.46447,-1.46447c4.85084,-4.83907 10.76151,-8.33553 15.80087,-12.88632c-1.02982,0.23195 -2.06327,0.43376 -3.10267,0.58717c-4.96304,0.73251 -9.85318,0.88328 -14.80023,1.82488c-6.59187,1.24436 -12.84643,4.22364 -19.50834,5.01964c-9.10364,1.08776 -18.82227,0.31072 -28.06349,0.19957l-2.2069,2.2069c-1.73951,2.01302 -3.51027,3.9901 -5.29133,5.95409c2.16327,-0.26437 4.44565,-0.17344 6.47541,-0.1737c4.40812,-0.00058 8.64595,0.53237 12.92662,1.18003l3.55318,-2.66488c0.42124,-0.32311 0.94829,-0.51515 1.5202,-0.51515c1.38071,0 2.5,1.11929 2.5,2.5c0,0.76522 -0.3438,1.45014 -0.88536,1.90872l-0.09784,0.08386c0.58959,0.39715 1.14989,1.11514 0.95413,2.38756c-0.38014,2.47093 -2.85107,2.09079 -2.85107,2.09079c-0.86133,-0.13251 -1.71737,-0.26806 -2.56986,-0.40297c-1.49703,1.60547 -3.354,2.87261 -5.06455,4.28075c-0.94355,1.07745 -1.94688,2.20892 -3.26354,3.46376c-1.19117,1.13524 -2.78762,1.79474 -3.95414,2.9553c-2.2333,2.22188 -3.9513,4.92233 -5.65656,7.5712c-3.48482,5.41314 -6.36448,11.22158 -9.26492,17.02279c1.26419,-0.75747 2.50617,-1.53704 3.68382,-2.38398c3.82977,-2.7543 7.22291,-6.13784 10.9832,-8.98768c8.41912,-6.38068 17.17801,-11.2102 24.71893,-18.75786c0,0 1.76777,-1.76777 3.53553,0c1.76777,1.76777 0,3.53553 0,3.53553c-3.2366,3.23383 -6.5688,6.50741 -10.265,9.23016c-4.83496,3.56159 -10.23372,6.38203 -15.01607,10.01198c-1.47617,1.12046 -2.89635,2.3213 -4.30867,3.53375c0.74983,-0.30877 1.49877,-0.61738 2.24505,-0.92828c3.29149,-1.37124 6.61062,-2.69646 9.9584,-3.94375c6.67394,-7.06387 14.11104,-13.51508 20.59344,-20.74535c3.55574,-3.96596 7.3536,-6.93107 11.58925,-10.14548c1.09083,-0.82782 2.01232,-2.03755 3.14372,-2.78227c0.22859,-0.47054 0.52435,-0.7663 0.52435,-0.7663zM290.70584,110.04486c7.34464,1.47601 14.74097,2.38581 22.07086,4.01467c0,0 1.74389,0.38753 1.95578,1.98157c2.09348,0.3363 1.99968,2.56406 1.99968,2.56406l-0.10599,1.66384c-1.74614,8.08455 -1.91521,16.0937 -1.96528,24.33637c-0.03946,6.01807 -0.80824,11.95245 -1.38746,17.91305l1.11502,-0.37167c0.2642,-0.09499 0.54902,-0.14675 0.84593,-0.14675c0.41973,0 0.8153,0.10344 1.16261,0.28621c0.85471,-0.5126 1.45981,-0.87514 1.55115,-0.92994c0,0 2.14373,-1.28624 3.42997,0.85749c1.28624,2.14373 -0.85749,3.42997 -0.85749,3.42997c-1.21139,0.72683 -2.47217,1.38207 -3.71834,2.05826l-0.19619,0.58858l-0.04843,-0.01614l-0.01487,0.18539c-1.26555,2.52169 -2.57915,5.04741 -3.95716,7.54944c-0.00782,5.1991 0.21304,10.41978 0.36373,15.63477c1.38609,1.14834 0.54458,2.92575 0.54458,2.92575l-0.45171,0.86119c0.0911,4.78666 0.06191,9.56294 -0.31926,14.30771c-0.62631,7.79628 -3.17302,15.80683 -5.06322,23.36766c0,0 -0.60634,2.42536 -3.0317,1.81902c-2.42536,-0.60634 -1.81902,-3.0317 -1.81902,-3.0317c1.4074,-5.62961 3.22397,-11.54014 4.25507,-17.40279c-0.84847,1.69542 -1.72385,3.37396 -2.55843,5.05377c-0.54918,1.10535 -0.50658,2.51461 -1.28452,3.47284c-0.97482,1.20074 -5.36212,3.51337 -6.73801,4.5103c-1.47989,1.07228 -2.60933,2.68645 -4.28077,3.42545c-0.03576,0.01581 -0.07148,0.0314 -0.10716,0.04676h2.13917c0,0 2.5,0 2.5,2.5c0,2.5 -2.5,2.5 -2.5,2.5h-4.02088c-18.00542,-0.00004 -35.99567,-1.00294 -53.97912,-1c0,0 -2.5,0 -2.5,-2.5c0,-2.5 2.5,-2.5 2.5,-2.5c12.7984,0.00203 25.5989,0.50758 38.40632,0.79899c-0.67952,-0.24896 -1.44742,-0.57081 -2.36303,-0.98929c-1.82558,-0.83438 -4.10068,-1.35983 -5.19742,-3.04094c-0.93859,-1.43871 -0.45472,-3.46127 -0.1471,-5.1513c0.15086,-0.82882 0.43332,-1.79557 0.80525,-2.83324c-3.74121,1.21462 -7.88563,2.01856 -11.41417,3.03278c-2.33247,-0.56702 -5.15454,-0.16297 -6.99741,-1.70107c-1.19542,-0.99772 -0.50459,-3.07891 -0.59239,-4.63351c-0.07033,-1.24523 -0.07403,-2.54175 -0.0219,-3.86037c-1.91112,-0.32145 -3.94976,-0.69811 -5.92664,-1.16007l-0.07183,0.35697c-1.61538,2.73557 -3.2274,5.4691 -4.87957,8.17922c0.13585,0.00081 0.27175,0.00143 0.4077,0.00184l0.99218,-0.00001c0,0 2.5,0 2.5,2.5c0,2.5 -2.5,2.5 -2.5,2.5l-1.00782,-0.00001c-1.16315,-0.00375 -2.32269,-0.02172 -3.47908,-0.05352c-0.91023,1.48277 -1.62101,3.12615 -2.83123,4.37072c-3.59521,3.69725 -8.8322,6.17349 -13.76355,8.38114c2.87207,-0.06903 5.72699,-0.03598 8.41352,0.3238c6.49701,0.87007 13.2792,3.58026 19.62223,5.27491c20.36364,5.44052 40.27195,11.92302 61.13206,15.27365c6.30027,1.01269 12.54586,2.36737 18.93622,2.42941c0.9925,0.00964 1.99577,-0.14522 2.97765,-0.0001c0.4871,0.072 1.15427,1.09611 1.3327,0.63718c0.40985,-1.05415 -0.29184,-2.25197 -0.26525,-3.38268c0.1312,-5.57788 0.43255,-11.14711 0.43255,-16.7545c0,-15.78202 -0.04716,-31.56489 0.02416,-47.34675c1.46985,-5.19339 1.27748,-9.51478 1.96137,-14.77912c0.57523,-4.42795 2.38666,-8.76267 3.03303,-13.17821c0.96778,-6.61118 -0.01856,-14.00338 -0.01856,-20.69593c0,-0.61408 -0.01871,-6.26348 0.06688,-6.57438c0.43081,-1.56501 1.48574,-2.88961 2.12342,-4.38233c0.46618,-1.09125 0.57254,-2.34007 1.18307,-3.35762c0.42004,-0.70006 1.54919,-0.87113 1.81693,-1.64238c0.69428,-1.99994 -0.46773,-4.25254 -0.17157,-6.34875c0.03632,-0.25707 1.98805,-8.02254 2.08097,-8.39351c0.31086,-0.9005 0.5648,-1.8227 0.93258,-2.70149c0.14361,-0.34315 0.95322,-0.85023 0.59352,-0.94504c-1.09704,-0.28916 -2.26314,0.23479 -3.39728,0.20601c-5.22733,-0.1326 -10.60568,-0.06768 -15.84181,-0.36309c-11.04168,-0.62294 -22.56895,-2.10131 -33.64037,-1.0096c-1.08661,0.10715 -2.16523,0.27567 -3.23845,0.48519c0.82544,0.21214 1.64714,0.40777 2.46358,0.57184zM298.67521,196.38765c1.05916,0.70212 1.05916,2.11235 1.05916,2.11235l-0.12829,1.79057c-0.4949,1.2831 -0.54456,2.8456 -1.48469,3.8493c-1.12879,1.20511 -2.87895,1.61932 -4.34649,2.37613c-3.85124,1.98611 -7.17811,2.61818 -10.95686,3.03927c-0.89623,0.60659 -1.78143,1.2076 -2.64427,1.80662c-0.22738,0.15786 -2.86702,1.99387 -5.15565,3.57677c-1.23978,2.55829 -2.30653,5.34027 -3.19643,7.72863c-0.18887,0.5069 -0.8035,1.16962 -0.43319,1.56394c0.67593,0.71975 1.86757,0.64177 2.80258,0.95906c2.8592,0.97026 5.89077,1.50923 8.90695,1.64738c2.08864,0.11612 5.08833,0.485 7.03229,-0.4349c1.36149,-0.64427 2.22532,-2.0385 3.43529,-2.93555c1.78481,-1.32323 4.31354,-1.73434 5.68199,-3.48471c0.53923,-0.68973 0.33495,-1.73869 0.71548,-2.52716c2.02711,-4.20014 4.40596,-8.31055 5.9066,-12.7667c1.02852,-3.0542 1.24236,-6.32461 1.87439,-9.48476l0.29312,-0.6606c-0.07288,-3.43869 -0.20286,-6.88241 -0.30372,-10.32324c-2.72999,4.278 -5.7191,8.38517 -9.05828,12.16758zM203.65785,219.93261c-7.40101,-1.64282 -14.45692,-4.49365 -21.91376,-5.98116c0,0 -1.37129,-0.27426 -1.85753,-1.43814c-0.16159,-0.0743 -0.30242,-0.15593 -0.41995,-0.24554c-1.19956,-0.91459 -0.84095,-2.85524 -0.74359,-4.45658c-0.98544,0.33391 -1.98743,0.60091 -3.00703,0.78514c-0.90339,0.16323 -1.86939,0.50912 -2.82998,0.79932c-0.01561,0.01588 -0.03124,0.03176 -0.04688,0.04763c-0.04612,0.15869 -0.09176,0.31758 -0.13689,0.4767c-0.83559,2.94566 -1.78087,5.39114 -2.02665,8.15869c0.98349,0.29042 1.96546,0.59547 2.94279,0.92822c9.07944,3.09124 17.91491,7.28644 27.52104,8.65619c5.539,0.78981 11.51146,0.33693 17.09496,0.33693h1c0,0 1.83984,0 2.36284,1.57833c2.53168,-1.33141 4.90008,-2.86052 6.73437,-4.74687c0.3362,-0.34574 0.61797,-0.73377 0.87203,-1.14339c-8.58831,-0.56312 -17.04057,-1.86753 -25.54577,-3.75546zM204.8109,215.06739c9.06504,2.00269 18.04824,3.33455 27.22417,3.77406c2.00678,-3.24277 3.98598,-6.50035 5.97578,-9.75506c-0.2576,-0.09317 -0.51032,-0.18877 -0.75753,-0.28692c-0.45682,-0.18136 -0.89949,-0.39024 -1.33137,-0.62006c-5.55844,-1.21609 -11.15314,-2.8918 -16.2545,-4.66208c-5.58593,-1.93843 -13.40918,-2.87154 -17.10163,-7.61548c-0.56586,-0.727 -1.25954,-1.39801 -1.89303,-2.09922c-2.24556,1.67006 -4.51023,3.30846 -6.79267,4.91237c-3.06628,2.15473 -6.27655,4.60527 -9.68352,6.56089c-0.11915,0.82028 -0.25371,1.63715 -0.47118,2.43557c-0.10959,0.40235 -1.13756,0.97313 -0.72327,1.02077c1.09748,0.12621 2.13507,-0.60333 3.23223,-0.73223c2.31739,-0.27227 4.66667,0 7,0h3c0,0 2.5,0 2.5,2.5c0,1.71714 -1.17943,2.25485 -1.91809,2.42323c2.64327,0.79269 5.29639,1.54805 7.99462,2.14415zM200.43361,232.613c-9.92473,-1.41517 -19.04596,-5.6791 -28.42671,-8.87293c-0.30644,-0.10433 -0.61303,-0.2062 -0.91972,-0.30596c1.15387,5.11321 4.09985,7.39225 9.38311,9.40171c2.74905,1.04559 5.32043,2.71568 8.22042,3.20617c3.13671,0.53053 6.36242,-0.042 9.54367,-0.042c3.15291,0 6.38047,0.74221 9.45854,0.05934c1.45103,-0.32191 2.67677,-1.29282 4.01516,-1.93922c0.76251,-0.35584 1.55919,-0.71063 2.37704,-1.06997c-4.55914,0.08526 -9.23172,0.19308 -13.65151,-0.43714zM154.11634,217.73607c0,0 -2.23607,-1.11803 -1.11803,-3.3541c0.23282,-0.46564 0.51412,-0.78583 0.81362,-1.00096c-0.02404,-0.22752 -0.04741,-0.45482 -0.07011,-0.68187c-0.01152,-0.11523 -1.00499,-10.03973 -1.00434,-10.0746c0.01382,-0.74529 -0.04603,-1.53208 -0.08806,-2.31894c-0.35632,1.3547 -0.67238,2.71632 -0.84186,4.1047c-0.40659,3.33076 -0.60993,6.73364 -1.60833,9.93715c-0.26962,3.57853 -0.23648,7.00034 -1.78513,10.37682c-0.40714,0.88768 -1.52121,1.27102 -2.05309,2.09007c-0.94896,1.4613 -0.63344,3.08143 -0.62663,4.68567c0.00708,1.66665 0.19448,3.34472 0,5c-0.05575,0.47453 -1.20075,1.13853 -0.73223,1.23223c1.08326,0.21665 2.13187,-0.63436 3.23223,-0.73223c3.56363,-0.31697 7.28698,-0.17219 10.94569,-0.07015c-2.35175,-6.11016 -3.87326,-12.62289 -4.80803,-19.0682c-0.08531,-0.04148 -0.17054,-0.08334 -0.25569,-0.12558zM158.23438,200c-0.41074,-0.24408 -1.13324,-1.19966 -1.23223,-0.73223c-0.22046,1.04094 0.56825,2.0559 0.72913,3.1077c0.09016,0.58947 0.16926,1.18035 0.24029,1.77224c1.90501,-2.20681 4.42311,-4.20752 6.98489,-6.11661c-1.418,0.08792 -2.85138,0.11366 -4.28404,0.10895c-0.38539,1.85995 -2.43804,1.85995 -2.43804,1.85995zM169.11634,192.26393l1.61803,-0.76393c1.53761,-1.15275 3.09518,-2.27653 4.6667,-3.38015c1.09799,-4.89791 2.53734,-9.72679 3.79112,-14.59422c0.1636,-0.63511 0.32601,-1.27219 0.48783,-1.91083c-2.11692,0.60694 -4.76916,0.37944 -6.44565,0.3852c-4.33091,0.01487 -8.66935,0.06014 -13,0c-0.2847,-0.00395 -0.57199,0.00623 -0.86047,0.02263c-0.70864,1.42736 -1.33981,2.86478 -1.77694,4.29479c-1.65476,5.41321 -2.22111,11.14281 -3.21198,16.71184c4.67101,0.11286 9.74305,0.46903 14.27084,-0.45727c0.25515,-0.20538 0.46052,-0.30806 0.46052,-0.30806zM193.26877,155.9552c1.16297,-1.47977 2.97707,-2.30347 4.4656,-3.4552c0,0 0.5305,-0.39787 1.24997,-0.51057c2.88671,-3.26624 6.45256,-6.36743 9.52482,-9.29875c0.26683,-0.25459 0.5345,-0.50866 0.80293,-0.76222c0.09017,-0.1171 0.14416,-0.18582 0.15451,-0.19623c0.24045,-0.24159 0.49881,-0.46244 0.76812,-0.67064c2.38385,-2.22817 4.82056,-4.41894 7.26054,-6.58765c0.27817,-0.30974 0.55635,-0.61733 0.839,-0.92356c-2.66953,-0.32811 -5.35123,-0.54999 -8.0999,-0.55038c-2.0792,-0.0003 -6.01026,-0.21147 -7.9614,0.6259c-1.53223,0.65759 -2.87818,1.56181 -4.06485,2.64823c-2.02932,3.37279 -4.1759,6.77969 -5.70548,10.27703c-0.90343,2.06566 -1.67443,4.17775 -2.36827,6.31582c-0.17,0.7104 -0.32783,1.40798 -0.4761,2.08647l-0.35416,0.59529c-0.94576,3.19031 -1.77297,6.41885 -2.66066,9.61934c-1.01972,3.6765 -2.15496,7.37273 -3.20028,11.07736c0.26778,-0.42575 0.5342,-0.85037 0.79891,-1.27386c1.97779,-3.16411 3.86472,-6.53191 5.81377,-9.86836c0.37589,-3.16461 0.94582,-6.26336 3.21291,-9.14802zM187.6094,188.93365c-0.98682,3.13056 -1.65475,6.20219 -2.23681,9.33623c4.60883,-3.08995 9.0928,-6.26041 13.54393,-9.62157c0.02503,-0.0189 0.05006,-0.03781 0.07509,-0.05672c0.21569,-1.16485 0.62581,-2.34176 0.77678,-3.50259c0,0 0.25331,-1.51986 1.55539,-1.97433c-1.54875,-1.76395 0.18183,-3.42059 0.18183,-3.42059l1.43683,-1.34887c3.96577,-2.9477 8.0747,-5.72707 12.23119,-8.44518c-8.0191,3.32968 -16.15852,6.38642 -22.35428,12.53333c-0.76756,0.51428 -1.53655,1.02642 -2.30624,1.53752c-0.39438,0.64736 -0.79616,1.29005 -1.20635,1.92742c-0.41561,0.64579 -0.8595,1.28238 -1.32459,1.91091c-0.12905,0.37159 -0.25355,0.74624 -0.37277,1.12444zM178.37519,202.79243c0.16266,-0.06494 0.32355,-0.13271 0.4822,-0.20399c0.25622,-0.11513 0.5043,-0.245 0.74649,-0.38555c0.08417,-0.49303 0.16801,-0.98376 0.2481,-1.45233c-0.49027,0.68599 -0.98078,1.36728 -1.4768,2.04188zM263.02375,170.26886c0.06832,-0.02379 0.13666,-0.04753 0.205,-0.07122c2.63072,-0.91173 5.40082,-1.5466 7.83136,-2.9047c0.22401,-0.12517 1.90244,-1.36802 3.61185,-2.60479c0.98395,-0.84366 2.25391,-1.93156 3.39258,-2.90363c-0.45931,-0.11477 -0.91863,-0.22949 -1.37796,-0.34416c-4.4089,3.07122 -9.00601,6.17326 -13.66283,8.8285zM286.6745,195.54354c-6.10513,4.23288 -13.31755,6.89129 -20.29422,9.67715c0.17957,-0.0045 0.35908,-0.00905 0.53854,-0.01362c0.55232,-0.26424 1.10815,-0.51669 1.67184,-0.74217l0.71523,-0.28609c0,0 1.96365,-0.78546 3.0012,0.8946c1.12054,-0.02417 2.23626,-0.04416 3.3455,-0.05657c4.31718,-4.61668 10.19989,-8.07183 14.7266,-12.29481c-1.20643,0.99814 -2.43979,1.94452 -3.7047,2.82152zM260.57066,212.97728c-0.23727,0.03778 -3.81065,-0.34553 -6.56476,-0.65141c-0.06767,1.06685 -0.14985,2.13155 -0.27159,3.1917c-0.05664,0.49322 -1.02262,1.11877 -0.59239,1.36649c0.82822,0.47688 1.91102,-0.03805 2.86653,-0.05708c4.25981,-1.34662 9.43353,-2.13761 13.43936,-4.06853c0.47563,-0.22927 0.93697,-0.48291 1.38759,-0.75485c0.36351,-0.67481 0.72788,-1.32105 1.08169,-1.92058c-1.38014,0.03092 -2.76691,0.06682 -4.15749,0.10183c-2.83481,1.13353 -6.8956,2.74572 -7.18893,2.79243zM221.64546,196.90914c-1.36717,-1.70128 -3.56584,-3.09893 -3.90631,-5.25476c-0.10452,-0.66182 0.08141,-1.30181 0.41391,-1.91047c-3.16635,1.68422 -6.28631,3.48972 -9.51129,5.06513c1.02622,0.28932 2.13064,0.36895 3.1542,0.68097c0.03165,0.00965 9.43793,3.27834 9.51259,3.30431c1.01165,0.35199 2.04397,0.70026 3.09235,1.04165c-0.98934,-0.91099 -1.91693,-1.88339 -2.75545,-2.92682zM227.43548,188.24758c-1.24818,0.85589 -2.49304,1.71701 -3.75714,2.54921c-0.30516,0.20089 -1.13979,0.23742 -0.94873,0.54883c0.61216,0.9978 1.85555,1.43872 2.67874,2.271c3.35559,3.39268 7.50394,7.47214 12.01468,9.77508c0.65283,0.13963 1.30482,0.2724 1.95501,0.39767c0.43243,-0.52568 1.15402,-0.97132 2.33064,-0.74397c1.1073,0.21396 1.61856,0.83092 1.84621,1.44374c0.49274,0.06934 0.98318,0.13335 1.47086,0.19173c1.43557,0.17185 2.88569,0.30337 4.34664,0.40229c0.24413,-1.55288 0.54168,-3.06974 0.87483,-4.50228c0.38302,-1.64701 1.15233,-3.18394 1.58972,-4.81734c0.46563,-1.73886 0.37303,-3.64395 1.11518,-5.28397c1.94735,-4.30331 6.46395,-7.67846 9.23873,-11.4197c0.90898,-1.22558 1.55612,-2.62443 2.24066,-3.99767c-1.88913,0.60637 -9.26399,2.96075 -9.34158,2.97882c-3.23057,0.75256 -6.62761,0.64901 -9.8428,1.46476c-3.161,0.802 -6.11506,2.26938 -9.19021,3.35502c-0.40455,0.14282 -0.81181,0.28107 -1.22109,0.41596c-2.50719,1.55738 -4.89796,3.25489 -7.40034,4.97081zM173.6315,235.52526c-4.92494,-3.02229 -7.25696,-8.06787 -7.87416,-13.68106c-2.00801,-0.57176 -4.0061,-1.14038 -5.97839,-1.8053c1.00571,5.78852 2.53948,11.56842 4.81858,16.96111c4.214,0 8.428,0 12.642,0c-1.2444,-0.40753 -2.49942,-0.79442 -3.60803,-1.47474zM166.58476,213.09351c-0.78455,-0.03041 -1.57737,-0.10783 -2.35038,-0.09351c-1.14689,0.02124 -3.35205,0.12865 -5.44785,-0.12257c0.05511,0.52116 0.11384,1.04354 0.17636,1.56687c2.23945,0.9083 4.54063,1.60445 6.86207,2.2621c0.16986,-1.22546 0.43798,-2.40724 0.75981,-3.61289zM162.99373,206.62148c-0.15236,0.12688 -0.7808,0.75301 -1.53655,1.33604c1.94636,0.01016 3.96219,0.78944 5.82048,0.23279c0.23048,-0.06904 0.39589,-0.23245 0.53649,-0.43347c-0.03449,-1.24379 0.51421,-2.82447 0.44439,-4.04785c0.27915,-0.73222 0.57254,-1.46237 0.87881,-2.1904c-2.04964,1.69881 -4.0979,3.39927 -6.14363,5.10289zM205.63429,190.0378c-0.01316,0.35662 0.19425,0.69016 0.75543,0.96704c3.15368,-1.95288 6.44853,-4.01008 9.81152,-5.84306c-1.89323,0.15959 -3.68535,0.01886 -5.26853,0.68896c-1.7527,1.41376 -3.51907,2.80994 -5.29842,4.18706zM245.51474,147.05843c2.48644,-2.98373 5.10524,-5.83468 7.72853,-8.67768c-0.73182,0.57823 -1.44753,1.17886 -2.13476,1.81766c-2.39982,2.23067 -4.30536,4.94199 -6.54708,7.33149c-2.8052,2.99013 -5.79118,5.85081 -8.78381,8.7101c1.08271,-0.79657 2.21041,-1.61185 3.33886,-2.36018c2.23025,-2.17015 4.39064,-4.4076 6.39827,-6.82139zM197.63198,127.48046c1.28417,-2.02091 2.69118,-3.96831 4.41205,-5.90432c0.52838,-0.59444 0.98775,-1.27375 1.47278,-1.92187c-1.25091,-0.04461 -2.49182,0.0019 -3.70806,0.27885c-1.37475,0.31305 -2.42591,1.48433 -3.76304,1.93156c-4.04125,1.35167 -9.08948,2.22249 -13.30227,3.08294c-1.63972,0.33491 -3.29828,0.57103 -4.9523,0.82613c-1.21187,0.18691 -2.73267,-0.32007 -3.64447,0.49979c-0.86638,0.77901 -0.14855,2.40369 -0.71623,3.42114c-0.19607,0.35141 -5.43294,6.41541 -6.18134,7.28547c-1.5836,2.54202 -3.47306,4.91486 -4.76764,7.61555c-2.11284,4.40769 -3.29593,9.39943 -5.1798,13.92376c-0.83392,2.00275 -2.35999,3.82104 -2.56729,5.98054c-0.09988,1.04045 0.76582,2.01148 1.68677,2.42951c0.72315,-1.35033 1.44173,-2.68281 2.06846,-3.98849c4.76442,-9.92588 10.91637,-19.80313 14.37307,-30.23159c0,0 0.79057,-2.37171 3.16228,-1.58114c2.37171,0.79057 1.58114,3.16228 1.58114,3.16228c-3.56389,10.63666 -9.74487,20.68077 -14.60887,30.8141c-0.30711,0.63981 -0.64023,1.28841 -0.98687,1.94393c0.40895,-0.02882 0.81726,-0.0486 1.22403,-0.0486c3.33333,0 6.66669,-0.01251 10,0c1.19989,0.0045 2.40053,0.07838 3.59954,0.03228c0.5273,-0.02028 1.27053,0.20621 1.56615,-0.23091c0.49124,-0.72636 0.3132,-1.73086 0.35304,-2.60683c0.15122,-3.32501 0.18936,-6.66565 0.62075,-9.96602c0.6531,-4.99654 3.39105,-8.4714 5.95882,-12.73913c3.93138,-4.84391 8.11646,-9.41956 12.29931,-14.00893zM184.59754,152.31575c-0.31767,0.77129 -0.5117,1.60124 -0.62398,2.47071l0.40936,-0.66165c0.39804,-1.26498 0.81499,-2.52183 1.25551,-3.76738c0.02091,-0.08372 0.04202,-0.16752 0.06333,-0.25139c-0.41319,0.71371 -0.78967,1.446 -1.10422,2.20971z" stroke-width="0.5"/><path d="M326.00757,196.12257c2.37743,0.77319 1.60424,3.15062 1.60424,3.15062l-0.74651,2.29539c-1.02243,3.12315 -1.34014,6.43944 -2.22331,9.60479c-0.05795,0.20769 -3.84309,9.05531 -3.95922,9.32718c-2.77023,6.4859 -5.51933,12.57148 -10.0805,17.98044c-0.86122,1.0213 -6.62417,7.9374 -7.39329,8.32121c-1.41891,0.70808 -3.17275,0.01623 -4.75702,-0.05264c-5.61208,-0.24396 -9.8531,-2.00232 -15.07194,-3.90008c0,0 -2.34948,-0.85436 -1.49513,-3.20384c0.85436,-2.34948 3.20384,-1.49513 3.20384,-1.49513c4.87547,1.7729 8.56526,3.08584 13.70107,3.61048c0.83177,0.08497 1.74203,0.8481 2.46997,0.4368c1.12643,-0.63645 1.49044,-2.11705 2.29585,-3.12958c1.03753,-1.30434 2.15087,-2.54655 3.22971,-3.81693c4.23928,-4.99192 6.73431,-10.70524 9.29905,-16.71411c1.24056,-2.90647 2.90567,-5.66318 3.74239,-8.71055c0.88847,-3.23586 1.25154,-6.61147 2.28366,-9.80442l0.74651,-2.29539c0,0 0.77319,-2.37743 3.15062,-1.60424z" stroke-width="0.5"/><path d="M129.23438,265.5v-167h222v167z" stroke-width="0"/></g></g></svg>